<svg xmlns="http://www.w3.org/2000/svg" width="200" height="200" viewBox="0 0 200 200" role="img" aria-labelledby="outerbrain-title outerbrain-desc">
  <title id="outerbrain-title">OuterBrain</title>
  <desc id="outerbrain-desc">A hexagonal semantic brain with journal pages, bounded context ring, guardrails, memory nodes, and restart replay path.</desc>
  <defs>
    <clipPath id="outerbrain-hex">
      <path d="M100 4 L183 52 L183 148 L100 196 L17 148 L17 52 Z"/>
    </clipPath>
    <radialGradient id="outerbrain-bg" cx="50%" cy="40%" r="70%">
      <stop offset="0" stop-color="#2d315f"/>
      <stop offset="0.62" stop-color="#14182f"/>
      <stop offset="1" stop-color="#080b13"/>
    </radialGradient>
    <linearGradient id="outerbrain-brain" x1="53" y1="61" x2="147" y2="137" gradientUnits="userSpaceOnUse">
      <stop offset="0" stop-color="#f4a7ff"/>
      <stop offset="0.55" stop-color="#77e5ff"/>
      <stop offset="1" stop-color="#8dffb0"/>
    </linearGradient>
    <filter id="outerbrain-glow" x="-30%" y="-30%" width="160%" height="160%">
      <feGaussianBlur stdDeviation="2.4" result="blur"/>
      <feMerge>
        <feMergeNode in="blur"/>
        <feMergeNode in="SourceGraphic"/>
      </feMerge>
    </filter>
  </defs>
  <g clip-path="url(#outerbrain-hex)">
    <path d="M100 4 L183 52 L183 148 L100 196 L17 148 L17 52 Z" fill="url(#outerbrain-bg)"/>
    <g fill="none" stroke="#77e5ff" stroke-width="2" opacity="0.22">
      <path d="M35 92 C54 58 73 42 100 42 C127 42 146 58 165 92"/>
      <path d="M35 108 C54 142 73 158 100 158 C127 158 146 142 165 108"/>
      <path d="M100 30 V170"/>
      <path d="M49 62 L151 138"/>
      <path d="M151 62 L49 138"/>
    </g>
    <ellipse cx="100" cy="102" rx="57" ry="48" fill="none" stroke="#8dffb0" stroke-width="3" opacity="0.75"/>
    <g filter="url(#outerbrain-glow)" fill="url(#outerbrain-brain)" stroke="#f8fbff" stroke-width="2.2" stroke-linejoin="round">
      <path d="M98 65 C86 53 65 58 63 76 C48 79 48 102 62 108 C55 126 74 142 91 132 C98 146 119 145 126 130 C143 134 156 119 149 103 C163 93 155 72 139 73 C133 54 110 52 98 65 Z" opacity="0.96"/>
      <path d="M100 66 C105 81 104 95 100 112 C96 126 98 136 105 143" fill="none" stroke="#172039" stroke-width="3"/>
      <path d="M70 83 C83 79 92 84 96 95" fill="none" stroke="#172039" stroke-width="2.6"/>
      <path d="M130 82 C116 82 108 89 106 100" fill="none" stroke="#172039" stroke-width="2.6"/>
      <path d="M74 113 C87 107 95 111 101 122" fill="none" stroke="#172039" stroke-width="2.6"/>
      <path d="M126 114 C115 108 108 113 104 124" fill="none" stroke="#172039" stroke-width="2.6"/>
    </g>
    <g fill="#0d1427" stroke="#f8fbff" stroke-width="2">
      <path d="M38 116 L66 109 L70 139 L42 146 Z"/>
      <path d="M130 109 L158 116 L154 146 L126 139 Z"/>
      <circle cx="100" cy="42" r="10"/>
      <circle cx="100" cy="160" r="10"/>
    </g>
    <g stroke="#f8fbff" stroke-width="2" stroke-linecap="round">
      <path d="M46 126 H61 M48 134 H62"/>
      <path d="M138 126 H153 M136 134 H150"/>
      <path d="M96 42 H104 M96 160 H104"/>
    </g>
    <path d="M43 68 C55 52 73 43 95 42" fill="none" stroke="#f4a7ff" stroke-width="4" stroke-linecap="round"/>
    <path d="M157 132 C145 148 127 157 105 158" fill="none" stroke="#8dffb0" stroke-width="4" stroke-linecap="round"/>
    <path d="M100 4 L183 52 L183 148 L100 196 L17 148 L17 52 Z" fill="none" stroke="#d9b8ff" stroke-width="4"/>
  </g>
</svg>
